<svg width="183" height="52" viewBox="0 0 183 52" fill="none" xmlns="http://www.w3.org/2000/svg">
<path d="M49.9766 40.6953C50.8828 42.3203 52.9375 43.1328 56.1406 43.1328C58.1406 43.1328 60.0234 42.6484 61.7891 41.6797C63.5703 40.6953 65.0938 39.25 66.3594 37.3438C67.0625 37.2969 67.4141 37.5859 67.4141 38.2109C67.4141 38.9141 66.9922 39.9297 66.1484 41.2578C65.3203 42.5703 64.5391 43.6328 63.8047 44.4453C63.0859 45.2578 62.2734 46.0156 61.3672 46.7188C60.4766 47.4062 59.5156 48 58.4844 48.5C56.25 49.5938 53.8984 50.1406 51.4297 50.1406C46.4609 50.1406 43.2344 48.7656 41.75 46.0156C41.2188 45.0156 40.9531 43.875 40.9531 42.5938C40.9531 41.2969 41.1719 40.1094 41.6094 39.0312C42.0625 37.9531 42.6797 36.9297 43.4609 35.9609C44.2422 34.9766 45.1719 34.0703 46.25 33.2422C47.3281 32.4141 48.5 31.7031 49.7656 31.1094C52.4531 29.8125 55.1953 29.1641 57.9922 29.1641C60.0078 29.1641 61.3906 29.7969 62.1406 31.0625C62.4062 31.5 62.5391 32.0859 62.5391 32.8203C62.5391 33.5391 62.3516 34.25 61.9766 34.9531C61.6172 35.6562 61.125 36.2969 60.5 36.875C59.875 37.4375 59.1484 37.9375 58.3203 38.375C57.4922 38.7969 56.6094 39.1641 55.6719 39.4766C54.0156 40.0391 52.1172 40.4453 49.9766 40.6953ZM49.6484 38.5156C51.6484 38.2812 53.3672 37.7266 54.8047 36.8516C56.3203 35.9141 57.0781 34.8203 57.0781 33.5703C57.0781 32.3047 56.5 31.6719 55.3438 31.6719C53.8438 31.6719 52.5391 32.3906 51.4297 33.8281C50.3672 35.2031 49.7734 36.7656 49.6484 38.5156Z" fill="white"/>
<path d="M71.375 49.9297C66.3906 49.9297 63.8984 47.8125 63.8984 43.5781C63.8984 40.625 65.8594 36.5312 69.7812 31.2969C69.3906 31.1719 69.0312 31.0625 68.7031 30.9688C68.375 30.875 68.1094 30.7969 67.9062 30.7344C67.7031 30.6562 67.5781 30.5391 67.5312 30.3828C67.4844 30.2266 67.4688 30.0469 67.4844 29.8438C67.5469 29.375 67.6562 29 67.8125 28.7188L71.3516 29.3047C74.1172 25.9453 76.5 23.6406 78.5 22.3906C79.1094 22.0156 79.5391 21.8281 79.7891 21.8281C80.0391 21.8281 80.2578 21.8672 80.4453 21.9453C80.6484 22.0078 80.8516 22.0938 81.0547 22.2031C81.4922 22.4375 81.8359 22.7109 82.0859 23.0234C79.9766 25.0859 78 27.4531 76.1562 30.125C79.7344 30.75 81.9219 31.0859 82.7188 31.1328C82.2969 32.8047 81.8125 33.6406 81.2656 33.6406C79.9219 33.6406 77.7109 33.2734 74.6328 32.5391C73.0859 35.1172 72.3125 37.2578 72.3125 38.9609C72.3125 41.3047 73.8906 42.4766 77.0469 42.4766C80.5781 42.4766 83.4844 40.7656 85.7656 37.3438C86.4688 37.2969 86.8203 37.5859 86.8203 38.2109C86.8203 38.7578 86.4922 39.5781 85.8359 40.6719C85.1797 41.75 84.5234 42.6875 83.8672 43.4844C83.2109 44.2812 82.4531 45.0703 81.5938 45.8516C80.7344 46.6172 79.7812 47.3047 78.7344 47.9141C76.4531 49.2578 74 49.9297 71.375 49.9297Z" fill="white"/>
<path d="M90.3359 50.0234L89.8672 50.0469C87.3984 50.0469 85.5156 49.4375 84.2188 48.2188C83 47.0781 82.3906 45.5312 82.3906 43.5781C82.3906 40.8906 83.4609 38.3203 85.6016 35.8672C87.6797 33.4922 90.2031 31.8281 93.1719 30.875C93.0781 30.1719 93.3359 29.5938 93.9453 29.1406C94.3828 28.8125 95.1016 28.6484 96.1016 28.6484C97.1172 28.6484 98.0938 28.7422 99.0312 28.9297C99.9688 29.1172 100.914 29.5312 101.867 30.1719C103.93 31.5312 104.961 33.3594 104.961 35.6562C104.961 38.1406 104.344 40.5 103.109 42.7344C105.797 42.1562 108.148 40.3594 110.164 37.3438C110.867 37.2969 111.219 37.5859 111.219 38.2109C111.219 38.4609 111.141 38.7656 110.984 39.125C108.859 44.1719 104.609 47.5156 98.2344 49.1562C95.9531 49.75 93.3594 50.0469 90.4531 50.0469L90.3359 50.0234ZM89.9375 39.7578C89.9375 41.5703 90.6953 42.4766 92.2109 42.4766C93.4922 42.4766 94.7812 41.7031 96.0781 40.1562C97.4375 38.5469 98.1172 36.9141 98.1172 35.2578C98.1172 33.5703 97.3047 32.4531 95.6797 31.9062C92.8828 32.6875 91.0938 34.4375 90.3125 37.1562C90.0625 37.9844 89.9375 38.8516 89.9375 39.7578Z" fill="white"/>
<path d="M114.758 49.0156C114.758 49.6406 114.234 49.9531 113.188 49.9531C110.594 49.9531 108.75 48.9219 107.656 46.8594C107.25 46.125 107.047 45.25 107.047 44.2344C107.047 43.2188 107.195 42.2109 107.492 41.2109C107.789 40.1953 108.188 39.1953 108.688 38.2109C109.188 37.2266 109.766 36.2734 110.422 35.3516C111.078 34.4297 111.773 33.5781 112.508 32.7969C114.055 31.1406 115.523 29.9766 116.914 29.3047C117.289 29.1328 117.625 29.0469 117.922 29.0469C118.234 29.0469 118.492 29.0547 118.695 29.0703C119.211 29.1172 119.594 29.3125 119.844 29.6562C118.891 31.6719 118.109 33.5156 117.5 35.1875C120.281 32.4531 123.516 30.5859 127.203 29.5859C128.406 29.2578 129.453 29.0938 130.344 29.0938C131.25 29.0938 131.773 29.2656 131.914 29.6094C132.055 29.9375 132.125 30.2422 132.125 30.5234C132.125 30.8047 132.086 31.1875 132.008 31.6719C131.93 32.1406 131.727 32.7969 131.398 33.6406C131.07 34.4844 130.734 35.3359 130.391 36.1953C129.516 38.3828 129.078 39.875 129.078 40.6719C129.078 42.0469 129.57 42.7344 130.555 42.7344C132.242 42.7344 134.102 41.625 136.133 39.4062C136.727 38.7656 137.266 38.0781 137.75 37.3438C138.453 37.2969 138.805 37.5859 138.805 38.2109C138.805 38.7109 138.484 39.5391 137.844 40.6953C137.203 41.8359 136.586 42.8281 135.992 43.6719C135.414 44.5 134.758 45.3125 134.023 46.1094C133.289 46.9062 132.484 47.625 131.609 48.2656C129.703 49.6562 127.844 50.3516 126.031 50.3516C124.219 50.3516 122.844 49.875 121.906 48.9219C120.969 47.9688 120.5 46.5781 120.5 44.75C120.5 42.0469 121.906 38.8125 124.719 35.0469C125.578 33.9062 125.953 33.3359 125.844 33.3359C124.656 33.3359 122.984 34.0859 120.828 35.5859C118.688 37.0859 117.055 38.6797 115.93 40.3672C115.211 43.2891 114.82 46.1719 114.758 49.0156Z" fill="white"/>
<path d="M153.266 24.0547C152.625 24.3672 151.93 24.6094 151.18 24.7812C150.445 24.9375 149.805 25.0156 149.258 25.0156C148.711 25.0156 148.219 24.9531 147.781 24.8281C147.344 24.6875 146.953 24.4922 146.609 24.2422C145.859 23.6953 145.484 23.0391 145.484 22.2734C145.484 21.5078 145.617 20.8594 145.883 20.3281C146.164 19.7969 146.562 19.3438 147.078 18.9688C148.188 18.1562 149.516 17.75 151.062 17.75C152.625 17.75 153.758 18.0703 154.461 18.7109C155.18 19.3516 155.539 20.0859 155.539 20.9141C155.539 21.7422 155.32 22.3906 154.883 22.8594C154.445 23.3281 153.906 23.7266 153.266 24.0547ZM135.219 47.1875C134.891 46.4844 134.727 45.625 134.727 44.6094C134.727 43.5781 134.945 42.4922 135.383 41.3516C135.836 40.2109 136.406 39.0781 137.094 37.9531C137.797 36.8125 138.578 35.7188 139.438 34.6719C140.297 33.6094 141.148 32.6719 141.992 31.8594C143.852 30.0938 145.219 29.2109 146.094 29.2109C146.469 29.2109 146.883 29.375 147.336 29.7031C147.805 30.0156 148.102 30.25 148.227 30.4062C145.867 32.9375 144.375 35.3828 143.75 37.7422C143.547 38.4609 143.445 39.1641 143.445 39.8516C143.445 40.5234 143.703 41.1328 144.219 41.6797C144.734 42.2109 145.375 42.4766 146.141 42.4766C146.906 42.4766 147.617 42.3359 148.273 42.0547C148.945 41.7578 149.602 41.375 150.242 40.9062C151.508 39.9531 152.617 38.7656 153.57 37.3438C154.273 37.2969 154.625 37.5859 154.625 38.2109C154.625 38.7266 154.297 39.5391 153.641 40.6484C153 41.7578 152.359 42.7188 151.719 43.5312C151.078 44.3281 150.344 45.1172 149.516 45.8984C148.703 46.6797 147.812 47.375 146.844 47.9844C144.672 49.3594 142.438 50.0469 140.141 50.0469C137.719 50.0469 136.078 49.0938 135.219 47.1875Z" fill="white"/>
<path d="M164.422 46.1562C162.281 48.6562 159.672 49.9062 156.594 49.9062C154.641 49.9062 153.078 49.3203 151.906 48.1484C150.75 46.9922 150.172 45.4688 150.172 43.5781C150.172 41.1875 151.109 38.8672 152.984 36.6172C154.797 34.4297 157.172 32.6484 160.109 31.2734C163.156 29.8516 166.305 29.1406 169.555 29.1406C170.789 29.1406 171.672 29.3359 172.203 29.7266C172.625 29.2266 173 28.9375 173.328 28.8594C173.672 28.7656 173.938 28.7188 174.125 28.7188C174.719 28.7188 175.352 28.8047 176.023 28.9766C175.961 29.1797 175.828 29.5312 175.625 30.0312C175.422 30.5156 175.195 31.0938 174.945 31.7656C174.695 32.4375 174.43 33.1719 174.148 33.9688C173.133 36.8125 172.625 38.9453 172.625 40.3672C172.625 41.7734 173.07 42.4766 173.961 42.4766C175.117 42.4766 176.406 41.9531 177.828 40.9062C179.094 39.9531 180.203 38.7656 181.156 37.3438C181.859 37.2969 182.211 37.5859 182.211 38.2109C182.211 38.7422 181.883 39.5547 181.227 40.6484C180.586 41.7422 179.961 42.6875 179.352 43.4844C178.742 44.2812 178.062 45.0625 177.312 45.8281C176.562 46.5938 175.766 47.2812 174.922 47.8906C173.031 49.2344 171.188 49.9062 169.391 49.9062C167.109 49.9062 165.578 49.2188 164.797 47.8438C164.547 47.4219 164.422 47.0547 164.422 46.7422C164.422 46.4141 164.422 46.2188 164.422 46.1562ZM157.719 39.7578C157.719 41.5703 158.477 42.4766 159.992 42.4766C161.664 42.4766 163.633 41.125 165.898 38.4219C167.102 36.9844 168.148 35.6094 169.039 34.2969C169.945 32.9844 170.633 31.9844 171.102 31.2969C167.195 31.3281 163.953 32.2188 161.375 33.9688C158.938 35.625 157.719 37.5547 157.719 39.7578Z" fill="white"/>
<path d="M11.6875 18.5312C9.79167 20.5521 8.28125 21.5625 7.15625 21.5625C5.90625 21.5625 4.79167 20.7604 3.8125 19.1562C2.85417 17.5729 2.375 15.8958 2.375 14.125C2.375 12.3542 2.79167 10.8125 3.625 9.5C4.47917 8.16667 5.60417 6.98958 7 5.96875C8.39583 4.94792 9.98958 4.0625 11.7812 3.3125C13.5938 2.5625 15.4688 1.94792 17.4062 1.46875C21.2396 0.489583 24.4583 0 27.0625 0C29.6875 0 31.8854 0.114583 33.6562 0.34375C35.4271 0.552083 37.1354 0.90625 38.7812 1.40625C40.4271 1.90625 41.9792 2.55208 43.4375 3.34375C44.8958 4.11458 46.1771 5.05208 47.2812 6.15625C49.6146 8.55208 50.7812 11.5417 50.7812 15.125C50.7812 18.8333 49.6146 22.6354 47.2812 26.5312C45.0312 30.3021 42.1146 33.4271 38.5312 35.9062C34.7188 38.5104 30.875 39.8125 27 39.8125C25.1042 39.8125 23.4375 39.3438 22 38.4062C21.3125 37.9271 20.9583 37.375 20.9375 36.75C20.9167 36.1042 20.9271 35.5208 20.9688 35C21.1354 32.8542 21.6042 30.3333 22.375 27.4375C23.8958 28.0625 25.5208 28.375 27.25 28.375C28.9792 28.375 30.4167 28.1979 31.5625 27.8438C32.7083 27.4688 33.8542 26.9479 35 26.2812C36.1667 25.6146 37.2812 24.8229 38.3438 23.9062C39.4271 22.9896 40.3854 21.9688 41.2188 20.8438C43.0312 18.3854 43.9375 16.0521 43.9375 13.8438C43.9375 11.6354 43.4271 9.89583 42.4062 8.625C41.4062 7.33333 40.1146 6.30208 38.5312 5.53125C35.5521 4.05208 31.875 3.3125 27.5 3.3125C23.7292 3.3125 19.875 4.07292 15.9375 5.59375C13.1875 6.67708 11.2083 8.05208 10 9.71875C9.375 10.5938 9.0625 11.5521 9.0625 12.5938C9.0625 14.9479 9.9375 16.9271 11.6875 18.5312ZM0 47.8438C1.0625 46.7188 2.3125 44.7708 3.75 42C5.1875 39.2083 6.41667 36.7917 7.4375 34.75C8.45833 32.7083 9.52083 30.6146 10.625 28.4688C11.75 26.3229 12.8958 24.1979 14.0625 22.0938C15.25 19.9688 16.4479 17.9688 17.6562 16.0938C20.3438 11.9688 22.8021 9.07292 25.0312 7.40625C25.2812 7.19792 25.5521 7.09375 25.8438 7.09375C26.1562 7.09375 26.4688 7.14583 26.7812 7.25C27.4688 7.47917 28.0729 7.83333 28.5938 8.3125C25.9896 10.3958 23.3021 15.8646 20.5312 24.7188C19.7396 27.1979 18.9688 29.6771 18.2188 32.1562C17.4688 34.6146 16.7396 36.9896 16.0312 39.2812C15.3438 41.5729 14.6562 43.5938 13.9688 45.3438C12.4896 49.1979 11.1667 51.125 10 51.125C6.3125 51.125 3.42708 50.375 1.34375 48.875C0.822917 48.5 0.375 48.1562 0 47.8438Z" fill="#7FE976"/>
</svg>
