<svg width="465" height="565" viewBox="0 0 465 565" fill="none" xmlns="http://www.w3.org/2000/svg">
<rect width="465" height="565" rx="16" fill="#E5E5EE"/>
<path d="M49.8392 344.71C53.0504 345.498 55.9173 346.987 58.44 349.177C60.9319 351.312 62.8071 353.786 64.0658 356.6C65.2628 359.301 65.7631 362.132 65.5667 365.09C65.3394 367.992 64.1055 370.791 61.8648 373.488C60.1481 375.677 58.3048 377.57 56.3352 379.167C54.3655 380.764 52.1253 382.401 49.6145 384.077C48.4993 384.838 47.5367 385.478 46.7269 385.997C45.9422 386.43 45.0328 386.968 43.9988 387.611C43.7746 387.734 43.3822 387.951 42.8217 388.26C42.3173 388.538 41.9684 388.766 41.7751 388.946L51.3677 406.349C51.7866 407.507 52.1648 408.724 52.5024 409.999C52.8961 411.244 52.7304 412.468 52.0053 413.671C51.5741 414.347 50.9256 414.961 50.0597 415.511C49.1938 416.061 48.3656 416.481 47.5752 416.771C46.7287 417.091 45.948 417.266 45.233 417.294C44.5432 417.236 43.8139 416.907 43.0451 416.308C42.5428 415.927 42.0097 415.49 41.4457 414.997C40.9068 414.417 40.3748 413.651 39.8496 412.698L14.2228 366.205C14.0066 365.813 13.8338 365.433 13.7045 365.066C13.5752 364.699 13.4459 364.331 13.3165 363.964C13.2742 363.622 13.1883 363.268 13.059 362.9C12.9297 362.533 12.8438 362.179 12.8015 361.837C12.7591 361.495 12.7322 361.181 12.7207 360.895C12.7653 360.578 12.8533 360.273 12.9848 359.982C13.1106 359.547 13.392 359.063 13.8289 358.53C14.3218 357.966 15.1568 357.359 16.3339 356.711L16.502 356.618C18.1778 355.548 20.0652 354.398 22.1641 353.168C24.2322 351.882 26.0132 350.937 27.5072 350.333C28.3536 350.012 29.1286 349.695 29.8321 349.38C30.5047 349.009 31.1647 348.682 31.8122 348.398C32.5157 348.084 33.2191 347.769 33.9226 347.454C34.6261 347.14 35.3451 346.853 36.0794 346.594C36.7017 346.397 37.2525 346.204 37.7318 346.012C38.2671 345.79 38.8179 345.596 39.3842 345.43C39.8944 345.295 40.4326 345.145 40.9988 344.979C41.6211 344.782 42.2337 344.7 42.8365 344.733C44.1989 344.421 45.4115 344.301 46.4742 344.373C47.537 344.444 48.6586 344.557 49.8392 344.71ZM52.4411 361.363C51.7557 359.987 50.8266 358.964 49.654 358.295C48.5374 357.595 47.2613 357.202 45.8256 357.117C44.3899 357.031 42.8914 357.163 41.3299 357.512C39.7685 357.861 38.2688 358.322 36.8309 358.896C36.4946 359.081 36.0182 359.344 35.4017 359.684C34.8103 359.936 34.1783 360.248 33.5057 360.619C32.8022 360.934 32.1422 361.261 31.5257 361.601C30.9343 361.854 30.4704 362.073 30.1341 362.258C29.823 362.357 29.4712 362.514 29.0789 362.73C28.6865 362.946 28.2381 363.194 27.7337 363.472C28.7475 365.178 29.7023 366.844 30.5982 368.47C31.4633 370.039 32.4056 371.749 33.4251 373.598C33.9251 374.638 34.4532 375.662 35.0093 376.671C35.5654 377.68 36.106 378.661 36.6312 379.614L41.7975 376.657C43.1427 375.915 44.5816 375.012 46.1144 373.948C47.6472 372.884 49.0032 371.698 50.1824 370.391C51.3616 369.083 52.1931 367.675 52.6768 366.166C53.2165 364.626 53.138 363.025 52.4411 361.363Z" fill="#C4C4C4"/>
<path d="M108.924 367.828C109.504 367.29 110.115 366.807 110.757 366.38C111.454 365.922 112.145 365.651 112.829 365.566C113.57 365.451 114.29 365.565 114.992 365.909C115.662 366.197 116.26 366.818 116.785 367.771C117.156 368.443 117.343 369.181 117.346 369.982C117.35 370.784 117.238 371.577 117.012 372.359C116.786 373.142 116.472 373.899 116.072 374.631C115.641 375.307 115.207 375.912 114.77 376.445C113.546 378.07 111.977 379.665 110.064 381.231C108.206 382.767 106.125 384.096 103.822 385.22C100.733 386.776 97.4943 387.794 94.1048 388.274C90.7405 388.667 87.5786 388.035 84.6189 386.377C81.8023 384.714 79.4197 382.447 77.4712 379.575C75.5227 376.702 74.0872 373.767 73.1647 370.767C71.9894 367.177 71.5743 363.971 71.9194 361.15C72.2897 358.242 73.1719 355.6 74.566 353.224C76.285 350.376 78.6985 348.059 81.8063 346.273C84.9142 344.487 88.2527 343.451 91.8218 343.164C94.1909 342.955 96.5337 343.161 98.8503 343.784C101.136 344.352 103.227 345.428 105.124 347.013C105.626 347.394 106.134 347.918 106.648 348.585C107.218 349.221 107.763 349.943 108.282 350.753C108.771 351.507 109.203 352.292 109.58 353.107C109.956 353.923 110.202 354.701 110.318 355.441C110.537 356.635 110.55 357.652 110.354 358.49C110.159 359.329 109.746 360.104 109.116 360.817C108.485 361.53 107.641 362.251 106.581 362.981C105.547 363.624 104.289 364.391 102.807 365.281C101.492 366.079 100.247 366.802 99.0697 367.45C97.8926 368.099 96.6876 368.763 95.4545 369.443C94.1905 370.067 92.8859 370.749 91.5407 371.491C90.2207 372.145 88.7325 372.892 87.0762 373.732C87.5259 374.946 88.2067 375.85 89.1185 376.443C90.0555 376.95 91.0988 377.252 92.2485 377.349C93.3672 377.39 94.5364 377.257 95.7558 376.95C96.9752 376.644 98.1048 376.24 99.1446 375.74C101.112 374.802 102.856 373.658 104.378 372.308C105.868 370.901 107.384 369.408 108.924 367.828ZM96.3189 353.511C94.5743 352.865 92.959 352.586 91.473 352.674C90.36 352.776 89.3144 353.133 88.3364 353.745C87.3836 354.27 86.536 354.92 85.7937 355.695C84.3845 356.983 83.4747 358.581 83.0643 360.488C83.014 360.662 82.9723 361.05 82.9392 361.653C82.8752 362.2 82.8267 362.774 82.7936 363.377C82.8165 363.949 82.8801 364.462 82.9842 364.916C83.0884 365.371 83.2526 365.536 83.4768 365.412L99.9553 356.329C99.4668 355.576 98.9714 355.008 98.4691 354.627C97.936 354.191 97.2192 353.818 96.3189 353.511Z" fill="#C4C4C4"/>
<path d="M140.892 316.884C141.928 317.702 142.604 318.864 142.923 320.369C143.297 321.843 143.116 323.04 142.379 323.957C141.998 324.459 141.434 325.026 140.686 325.658C139.907 326.233 139.044 326.855 138.097 327.523C137.206 328.161 136.299 328.77 135.377 329.351C134.455 329.932 133.658 330.408 132.985 330.779C133.968 332.43 134.982 334.136 136.027 335.899C137.04 337.606 138.039 339.284 139.022 340.935C140.004 342.585 140.928 344.195 141.793 345.765C142.628 347.278 143.356 348.667 143.98 349.931C144.444 350.772 144.984 351.752 145.602 352.873C146.189 353.938 146.677 355.022 147.064 356.123C147.508 357.194 147.807 358.199 147.959 359.138C148.08 360.021 147.922 360.729 147.486 361.262C146.15 362.949 144.66 364.025 143.018 364.492C141.462 364.984 140.129 364.952 139.018 364.395C138.168 363.914 137.368 363.258 136.619 362.429C135.838 361.544 135.114 360.627 134.446 359.68C133.803 358.646 133.219 357.653 132.694 356.7C132.194 355.66 131.743 354.776 131.341 354.047C130.1 351.662 128.66 348.985 127.023 346.014C125.411 342.956 123.77 339.914 122.102 336.888L120.841 337.583C120.168 337.953 119.3 338.432 118.235 339.019C117.195 339.519 116.112 340.007 114.985 340.482C113.883 340.87 112.822 341.199 111.802 341.469C110.751 341.683 109.89 341.646 109.219 341.358C108.201 340.969 107.376 340.4 106.745 339.652C106.169 338.873 105.793 338.058 105.615 337.205C105.463 336.266 105.513 335.362 105.764 334.493C105.985 333.567 106.413 332.819 107.049 332.25C107.904 331.413 109.256 330.485 111.105 329.466C112.924 328.39 114.662 327.433 116.318 326.593C115.953 326.063 115.631 325.546 115.353 325.042C115.044 324.481 114.723 323.964 114.389 323.491C113.962 322.849 113.471 322.024 112.915 321.015C112.328 319.95 111.812 318.882 111.368 317.811C110.949 316.654 110.661 315.534 110.503 314.452C110.314 313.313 110.389 312.322 110.727 311.478C111.197 310.342 111.837 309.514 112.647 308.995C113.482 308.388 114.356 308.052 115.271 307.987C116.241 307.891 117.163 308.04 118.038 308.435C118.939 308.742 119.717 309.227 120.374 309.888C120.913 310.468 121.501 311.203 122.138 312.094C122.745 312.929 123.326 313.851 123.882 314.86C124.494 315.838 125.078 316.831 125.634 317.84C126.19 318.849 126.7 319.774 127.164 320.615L128.004 320.151C128.845 319.688 129.81 319.119 130.901 318.445C131.991 317.771 133.099 317.197 134.226 316.722C135.409 316.216 136.572 315.94 137.716 315.895C138.829 315.793 139.888 316.122 140.892 316.884Z" fill="#C4C4C4"/>
<path d="M153.835 308.544C155.19 306.628 156.769 304.918 158.57 303.413C160.372 301.909 162.315 300.728 164.401 299.871C166.542 298.983 168.769 298.449 171.082 298.271C173.451 298.061 175.838 298.28 178.241 298.929C180.241 299.507 182.227 300.459 184.199 301.783C186.141 303.051 187.814 304.431 189.221 305.921C191.873 308.479 193.727 311.512 194.785 315.022C195.842 318.531 196.3 322.079 196.157 325.665C196.052 327.331 195.689 328.993 195.068 330.65C194.472 332.221 193.7 333.67 192.751 334.997C191.502 336.709 189.974 338.245 188.166 339.607C186.39 341.024 184.531 342.159 182.588 343.01C179.133 344.696 175.699 345.492 172.286 345.4C168.93 345.277 165.818 344.471 162.951 342.982C160.14 341.462 157.664 339.356 155.522 336.663C153.405 333.884 151.902 330.693 151.013 327.091C150.056 323.233 149.847 319.804 150.385 316.804C150.949 313.716 152.099 310.963 153.835 308.544ZM162.567 318.42C162.159 319.668 162.055 321.004 162.255 322.429C162.456 323.853 162.855 325.24 163.453 326.591C164.021 327.886 164.8 329.101 165.791 330.236C166.807 331.283 167.929 332.126 169.158 332.764C170.182 333.296 171.577 333.441 173.343 333.198C175.109 332.955 176.808 332.457 178.439 331.704C180.295 330.828 181.602 329.486 182.36 327.68C183.087 325.818 183.339 323.888 183.116 321.892C182.948 319.865 182.311 317.914 181.205 316.039C180.099 314.165 178.636 312.705 176.819 311.661C175.528 310.911 174.127 310.623 172.616 310.798C171.13 310.887 169.715 311.302 168.369 312.043C167.049 312.697 165.868 313.604 164.826 314.763C163.753 315.866 163 317.085 162.567 318.42Z" fill="#C4C4C4"/>
<path d="M194.111 296.758C193.4 295.469 192.615 294.111 191.756 292.685C190.953 291.228 190.479 289.771 190.335 288.316C190.196 287.004 190.508 285.846 191.269 284.842C192.056 283.75 193.031 283.066 194.195 282.791C195.296 282.403 196.251 282.278 197.059 282.418C197.866 282.557 198.552 282.874 199.116 283.366C199.705 283.773 200.244 284.352 200.733 285.106C201.19 285.804 201.648 286.502 202.106 287.199C202.11 285.882 202.363 284.683 202.864 283.603C203.365 282.523 203.955 281.54 204.636 280.653C205.316 279.766 206.003 279.023 206.695 278.422C207.443 277.79 208.041 277.351 208.489 277.104C210.619 275.93 212.984 275.248 215.583 275.057C218.207 274.78 220.683 275.096 223.011 276.005C224.352 276.582 225.527 277.322 226.538 278.227C227.573 279.045 228.499 279.996 229.316 281.08C230.189 282.134 230.994 283.262 231.729 284.464C232.434 285.61 233.154 286.784 233.89 287.986C236.148 291.419 238.109 294.978 239.775 298.664C240.121 299.423 240.556 300.279 241.082 301.232C241.607 302.185 242.048 303.184 242.405 304.23C242.787 305.188 242.983 306.14 242.992 307.085C243.027 307.943 242.67 308.688 241.922 309.319C240.899 310.248 239.949 310.845 239.072 311.109C238.281 311.399 237.554 311.471 236.889 311.326C236.225 311.181 235.61 310.862 235.046 310.369C234.482 309.876 233.9 309.283 233.299 308.591C232.847 308.036 232.349 307.398 231.804 306.675C231.285 305.865 230.765 305.055 230.246 304.245C229.782 303.404 229.306 302.607 228.818 301.853C228.354 301.013 227.937 300.256 227.567 299.583C226.98 298.518 226.303 297.357 225.536 296.099C224.77 294.84 224.105 293.635 223.544 292.483C222.092 289.849 220.294 288.245 218.152 287.673C216.034 287.013 213.86 287.444 211.629 288.966C209.959 290.178 208.792 291.772 208.126 293.747C207.43 295.665 207.635 297.562 208.741 299.437C209.143 300.165 209.514 300.838 209.853 301.454C210.193 302.071 210.505 302.703 210.789 303.35C211.129 303.967 211.499 304.639 211.901 305.368C212.303 306.097 212.751 306.91 213.245 307.806C214.264 309.656 215.346 311.618 216.489 313.691C217.601 315.709 218.26 317.502 218.466 319.069C218.759 320.661 218.512 322.003 217.726 323.095C216.939 324.186 215.6 324.741 213.71 324.76C212.909 324.763 212.157 324.593 211.456 324.249C210.78 323.817 210.144 323.327 209.549 322.778C209.01 322.198 208.527 321.588 208.101 320.946C207.643 320.248 207.216 319.606 206.82 319.021C205.633 317.264 204.578 315.616 203.657 314.078C202.761 312.452 201.804 310.715 200.784 308.865L194.111 296.758Z" fill="#C4C4C4"/>
<path d="M244.899 266.353C245.764 267.922 246.737 269.688 247.818 271.649C248.956 273.58 250.111 275.611 251.285 277.74C252.428 279.814 253.572 281.888 254.715 283.962C255.827 285.98 256.834 287.873 257.735 289.641C258.143 290.513 258.568 291.484 259.012 292.555C259.426 293.569 259.696 294.59 259.823 295.616C259.95 296.642 259.804 297.636 259.384 298.598C258.989 299.473 258.188 300.207 256.98 300.8C255.181 301.646 253.503 301.584 251.946 300.615C250.445 299.616 248.943 297.886 247.441 295.425C246.73 294.136 245.883 292.666 244.9 291.016C243.974 289.334 243.003 287.64 241.99 285.933C241.032 284.196 240.105 282.514 239.209 280.889C238.282 279.208 237.448 277.694 236.707 276.349C236.274 275.564 235.721 274.627 235.047 273.537C234.429 272.416 233.824 271.251 233.231 270.043C232.638 268.836 232.161 267.637 231.798 266.449C231.404 265.204 231.259 264.079 231.361 263.072C231.507 262.407 231.882 261.762 232.487 261.136C233.061 260.454 233.74 259.897 234.525 259.465C235.366 259.001 236.228 258.709 237.111 258.587C238.05 258.435 238.827 258.519 239.441 258.838C239.851 259.05 240.282 259.434 240.733 259.989C241.185 260.544 241.656 261.198 242.144 261.952C242.658 262.619 243.147 263.372 243.61 264.213C244.098 264.967 244.528 265.68 244.899 266.353ZM232.343 251.131C230.853 252.537 229.303 253.172 227.693 253.036C226.109 252.813 224.729 251.966 223.552 250.495C222.679 249.442 222.192 248.358 222.09 247.245C221.988 246.132 222.206 245.135 222.743 244.254C223.25 243.317 224.023 242.599 225.063 242.099C226.103 241.599 227.328 241.435 228.738 241.608C230.062 241.755 231.167 242.169 232.054 242.85C232.996 243.499 233.615 244.291 233.911 245.224C234.262 246.127 234.33 247.112 234.115 248.181C233.869 249.193 233.279 250.176 232.343 251.131Z" fill="#C4C4C4"/>
<path d="M260.177 253.328C261.395 251.56 262.836 249.998 264.5 248.643C266.133 247.231 267.909 246.143 269.826 245.378C271.768 244.527 273.796 244.03 275.91 243.888C277.993 243.69 280.15 243.89 282.38 244.488C284.64 245.142 286.642 246.121 288.384 247.426C290.126 248.731 291.753 250.356 293.263 252.301C294.29 253.634 295.396 254.779 296.58 255.734C297.764 256.689 298.977 257.628 300.217 258.553C301.513 259.446 302.753 260.37 303.937 261.325C305.177 262.249 306.336 263.291 307.414 264.451C308.405 265.586 308.988 266.909 309.163 268.42C309.364 269.844 308.812 271.098 307.51 272.181C306.762 272.813 305.918 273.205 304.979 273.357C304.065 273.422 303.145 273.345 302.219 273.124C301.263 272.847 300.347 272.512 299.472 272.117C298.622 271.636 297.831 271.195 297.099 270.794C296.737 273.186 296.061 275.276 295.073 277.063C294.054 278.794 292.557 280.386 290.581 281.841C288.911 283.053 287.233 284.052 285.546 284.836C283.858 285.619 281.951 286.269 279.823 286.784C277.073 287.496 274.497 287.528 272.093 286.879C269.715 286.144 267.549 284.999 265.596 283.445C263.668 281.804 262.028 279.821 260.674 277.498C259.32 275.175 258.319 272.695 257.668 270.057C256.785 266.597 256.603 263.482 257.122 260.712C257.641 257.941 258.659 255.48 260.177 253.328ZM267.7 262.006C267.348 263.223 267.241 264.488 267.38 265.8C267.519 267.112 267.856 268.387 268.393 269.626C268.986 270.834 269.747 271.949 270.676 272.972C271.605 273.995 272.625 274.784 273.735 275.341C274.728 275.817 276.052 275.964 277.706 275.783C279.329 275.546 280.9 275.082 282.42 274.391C284.163 273.576 285.373 272.325 286.05 270.636C286.783 268.917 287.041 267.131 286.823 265.277C286.631 263.337 286.028 261.514 285.014 259.807C283.969 258.044 282.597 256.682 280.897 255.719C279.637 255.024 278.308 254.734 276.909 254.848C275.566 254.93 274.278 255.311 273.045 255.991C271.781 256.614 270.656 257.49 269.67 258.618C268.709 259.66 268.053 260.789 267.7 262.006Z" fill="#C4C4C4"/>
<path d="M328.55 261.79C329.353 263.247 329.5 264.774 328.991 266.369C328.57 267.99 327.63 269.203 326.173 270.006C324.715 270.809 323.161 270.972 321.509 270.494C319.944 270.041 318.76 269.086 317.956 267.629C317.153 266.171 316.963 264.632 317.384 263.011C317.862 261.359 318.83 260.132 320.287 259.328C321.745 258.525 323.271 258.378 324.867 258.887C326.519 259.365 327.747 260.332 328.55 261.79Z" fill="#C4C4C4"/>
<path d="M332.59 196.094C331.187 197.526 329.665 198.145 328.024 197.953C326.353 197.705 324.929 196.846 323.753 195.375C322.936 194.291 322.476 193.192 322.375 192.079C322.329 190.935 322.546 189.938 323.028 189.088C323.565 188.207 324.354 187.516 325.394 187.016C326.434 186.516 327.659 186.353 329.069 186.525C330.393 186.673 331.498 187.086 332.385 187.767C333.296 188.361 333.9 189.124 334.195 190.058C334.547 190.96 334.615 191.946 334.4 193.014C334.185 194.083 333.582 195.109 332.59 196.094ZM344.48 209.71C344.85 210.383 345.546 211.644 346.565 213.494C347.585 215.343 348.697 217.361 349.902 219.547C351.076 221.677 352.219 223.751 353.331 225.769C354.443 227.786 355.293 229.328 355.88 230.393C356.75 232.105 357.627 233.96 358.509 235.959C359.448 237.926 360.202 239.958 360.773 242.055C361.401 244.121 361.698 246.186 361.666 248.25C361.666 250.369 361.174 252.394 360.192 254.324C359.047 256.49 357.502 258.328 355.558 259.838C353.644 261.404 351.508 262.435 349.151 262.931C347.763 263.33 346.326 263.574 344.84 263.663C343.41 263.72 342.056 263.517 340.777 263.052C339.181 262.543 337.742 261.656 336.459 260.39C335.208 259.18 334.731 257.652 335.029 255.807C335.239 254.595 335.758 253.615 336.587 252.865C337.441 252.029 338.484 251.6 339.715 251.58C340.859 251.534 341.975 251.503 343.063 251.488C344.151 251.473 345.161 251.318 346.095 251.023C346.997 250.672 347.792 250.124 348.478 249.38C349.133 248.581 349.603 247.445 349.888 245.972C350.002 245.252 349.881 244.369 349.524 243.323C349.223 242.247 348.791 241.132 348.23 239.981C347.693 238.742 347.116 237.562 346.498 236.441C345.849 235.264 345.277 234.227 344.783 233.33C344.104 232.097 343.532 231.06 343.069 230.219C342.574 229.323 342.126 228.51 341.725 227.781C341.292 226.997 340.86 226.212 340.427 225.427C339.964 224.586 339.408 223.577 338.759 222.4C338.388 221.728 337.804 220.734 337.006 219.42C336.209 218.106 335.409 216.72 334.605 215.263C333.827 213.719 333.167 212.255 332.625 210.874C332.138 209.461 331.965 208.351 332.104 207.543C332.308 206.189 332.97 205.202 334.091 204.585C335.237 203.88 336.456 203.573 337.749 203.664C338.582 203.717 339.336 203.959 340.012 204.39C340.658 204.765 341.25 205.243 341.789 205.822C342.328 206.402 342.826 207.041 343.283 207.739C343.71 208.381 344.109 209.038 344.48 209.71Z" fill="#C4C4C4"/>
<path d="M372.703 188.125C374.7 187.901 376.726 188.064 378.781 188.611C380.806 189.103 382.743 189.899 384.592 190.999C386.497 192.068 388.226 193.417 389.781 195.044C391.361 196.585 392.677 198.308 393.727 200.214C395.359 203.042 396.169 206.103 396.158 209.397C396.203 212.661 395.055 215.815 392.714 218.859C390.885 221.11 388.848 223.182 386.604 225.077C384.385 226.885 381.977 228.614 379.379 230.265L387.859 245.651C388.045 245.987 388.159 246.326 388.201 246.668C388.299 246.98 388.426 247.275 388.58 247.555C388.777 248.178 388.915 248.759 388.994 249.301C389.129 249.811 389.224 250.38 389.277 251.008C389.239 251.468 389.184 251.9 389.115 252.303C389.045 252.707 388.947 253.126 388.821 253.561C387.847 254.975 386.523 255.888 384.849 256.299C383.922 256.737 383.038 256.858 382.2 256.663C381.417 256.436 380.76 256.105 380.227 255.668C379.693 255.231 379.142 254.694 378.572 254.058C378.362 253.809 378.151 253.56 377.941 253.31C377.817 253.086 377.678 252.834 377.523 252.554L351.711 205.724C351.526 205.388 351.341 205.052 351.155 204.715C350.995 204.292 350.835 203.869 350.675 203.446C350.36 202.742 350.157 201.977 350.067 201.15C349.799 199.471 350.311 197.946 351.602 196.577C352.893 195.207 354.535 194.01 356.528 192.985C357.904 192.299 359.355 191.682 360.879 191.134C362.46 190.555 363.988 190.079 365.462 189.704C366.962 189.243 368.337 188.887 369.587 188.636C370.838 188.386 371.876 188.215 372.703 188.125ZM382.881 206.192C382.24 204.499 381.318 203.29 380.115 202.565C378.936 201.753 377.629 201.304 376.194 201.218C374.727 201.077 373.185 201.196 371.568 201.576C370.006 201.925 368.507 202.386 367.069 202.96C366.87 202.996 366.574 203.123 366.182 203.339C365.845 203.524 365.453 203.741 365.004 203.988C365.993 205.781 366.951 207.519 367.878 209.2C368.83 210.795 369.803 212.56 370.797 214.497L373.902 220.13C375.16 219.363 376.428 218.482 377.706 217.485C379.04 216.458 380.184 215.352 381.139 214.168C382.094 212.984 382.76 211.74 383.138 210.436C383.571 209.1 383.486 207.686 382.881 206.192Z" fill="#C4C4C4"/>
<path d="M437.529 181.003C438.518 182.797 439.527 184.762 440.558 186.897C441.645 189.002 442.627 190.982 443.504 192.837C444.43 194.519 445.273 196.247 446.032 198.021C446.723 199.54 447.364 201.233 447.954 203.1C448.576 205.023 448.98 206.883 449.167 208.68C449.432 211.018 449.263 213.23 448.66 215.317C448.087 217.46 446.905 219.426 445.115 221.217C443.569 222.654 442.042 223.861 440.534 224.838C439.057 225.871 437.361 226.77 435.443 227.535C434.174 228.015 432.727 228.374 431.104 228.611C429.512 228.904 427.926 229.011 426.347 228.931C424.769 228.851 423.253 228.554 421.8 228.039C420.378 227.581 419.159 226.827 418.143 225.78C416.917 224.483 416.163 223.181 415.881 221.875C415.656 220.537 415.796 219.4 416.303 218.463C416.809 217.526 417.688 216.932 418.938 216.682C420.188 216.431 421.676 216.744 423.401 217.62C424.63 218.258 426.059 218.53 427.688 218.436C429.317 218.342 430.891 217.949 432.41 217.258C433.929 216.567 435.222 215.599 436.289 214.353C437.443 213.132 438.088 211.717 438.224 210.107C438.321 208.958 438.049 207.536 437.409 205.843C436.824 204.119 436.142 202.485 435.364 200.941C433.155 203.694 430.459 205.764 427.278 207.152C424.122 208.453 420.894 209.027 417.594 208.873C414.318 208.632 411.214 207.639 408.279 205.895C405.37 204.064 403.116 201.433 401.517 198.003C400.11 195.052 399.215 192.037 398.834 188.958C398.509 185.849 399.088 182.79 400.571 179.78C401.791 177.353 403.526 175.264 405.776 173.512C407.995 171.705 410.254 170.168 412.552 168.901C413.897 168.159 415.214 167.433 416.503 166.723C417.849 165.981 419.174 165.47 420.481 165.188C421.787 164.907 423.105 164.911 424.434 165.201C425.764 165.492 427.069 166.27 428.352 167.536C430.378 169.489 432.053 171.599 433.375 173.866C434.754 176.102 436.139 178.481 437.529 181.003ZM425.149 196.925C425.709 196.617 426.211 196.267 426.654 195.877C427.152 195.456 427.608 195.022 428.019 194.576C428.787 193.714 429.24 192.88 429.38 192.072C429.575 191.234 429.572 190.432 429.369 189.667C429.136 188.845 428.759 188.03 428.24 187.22C427.776 186.379 427.297 185.51 426.803 184.613C426.401 183.885 425.926 183.088 425.375 182.222C424.881 181.325 424.361 180.515 423.817 179.792C423.241 179.013 422.671 178.377 422.107 177.884C421.543 177.391 420.991 177.184 420.45 177.263C419.542 177.472 418.567 177.826 417.528 178.326C416.457 178.77 415.448 179.326 414.501 179.994C413.523 180.606 412.65 181.343 411.883 182.205C411.14 182.979 410.6 183.789 410.262 184.633C409.822 185.825 409.672 187.077 409.811 188.389C409.949 189.701 410.287 190.977 410.824 192.215C411.416 193.423 412.134 194.526 412.976 195.523C413.874 196.49 414.907 197.236 416.073 197.762C417.476 198.451 418.989 198.677 420.612 198.44C422.235 198.203 423.748 197.698 425.149 196.925Z" fill="#C4C4C4"/>
</svg>
